# xmcd
#
# Track frame offsets: 
#        150
#        12956
#        30906
#        44759
#        62834
#        74632
#        88164
#        100312
#        116427
#        127790
#        144756
#        152718
#        174463
#
# Disc length: 2577 seconds
#
# Revision: 0
# Processed by: cddbd v1.5.2PL0 Copyright (c) Steve Scherf et al.
# Submitted via: ExactAudioCopy v0.99pb5
#
DISCID=a90a0f0d
DTITLE=The Little Willies - For The Good Times
DYEAR=2012
DGENRE=Country
TTITLE0=I Worship You
TTITLE1=Remember Me
TTITLE2=Diesel Smoke, Dangerous Curves
TTITLE3=Lovesick Blues
TTITLE4=Tommy Rockwood
TTITLE5=Fist City
TTITLE6=Permanently Lonely
TTITLE7=Foul Owl On The Prowl
TTITLE8=Wide Open Road
TTITLE9=For The Good Times
TTITLE10=If You've Got The Money I've Got The Time
TTITLE11=Jolene
TTITLE12=Delia's Gone
EXTD=
EXTT0=
EXTT1=
EXTT2=
EXTT3=
EXTT4=
EXTT5=
EXTT6=
EXTT7=
EXTT8=
EXTT9=
EXTT10=
EXTT11=
EXTT12=
PLAYORDER=
